<svg width="960" height="960" viewBox="0 0 960 960" xmlns="http://www.w3.org/2000/svg">
   <defs>
     <!-- 背景渐变 -->
     <linearGradient id="bgGrad" x1="0%" y1="0%" x2="0%" y2="100%">
       <stop offset="0%" style="stop-color:#40B0E6;stop-opacity:1" />
       <stop offset="100%" style="stop-color:#1A8CD8;stop-opacity:1" />
     </linearGradient>
   </defs>

   <!-- 20%圆角渐变背景 -->
   <rect width="960" height="960" fill="url(#bgGrad)" rx="192" ry="192" />

   <!-- U盘图标：灰色 #d0d0d0，加粗描边，下层居中 -->
   <g transform="translate(241, 241) scale(1)">
     <path fill="#d0d0d0" stroke="#d0d0d0" stroke-width="6" stroke-linejoin="round"
       d="M475.308,104.166L373.484,2.342c-3.124-3.123-8.188-3.123-11.312,0L311.26,53.254
       c-3.174-3.001-8.138-3.001-11.312,0l-28.288,28.28l-5.656-5.656c-3.174-3.001-8.138-3.001-11.312,0L29.788,300.798
       c-40.237,40.988-39.629,106.835,1.36,147.072c40.457,39.715,105.268,39.712,145.72-0.008l224.896-224.904
       c3.123-3.124,3.123-8.188,0-11.312l-5.656-5.656l28.288-28.288c3.123-3.124,3.123-8.188,0-11.312l50.912-50.912
       C478.431,112.354,478.431,107.29,475.308,104.166z M165.556,436.55c-34.368,34.368-90.088,34.368-124.456,0
       s-34.368-90.088,0-124.456L260.348,92.846l124.448,124.456L165.556,436.55z M384.796,194.67L282.98,92.846l22.616-22.624
       l101.832,101.824L384.796,194.67z M413.084,155.078l-39.6-39.6l11.312-11.312l-11.312-11.32l-11.312,11.32l-39.6-39.6l45.256-45.256
       l90.504,90.512L413.084,155.078z"/>
     <path fill="#d0d0d0" stroke="#d0d0d0" stroke-width="6"
       d="M356.514,53.249l11.315-11.313l22.626,22.629l-11.315,11.313L356.514,53.249z"/>
     <path fill="#d0d0d0" stroke="#d0d0d0" stroke-width="6"
       d="M401.772,98.511l11.315-11.313l22.626,22.629l-11.315,11.313L401.772,98.511z"/>
   </g>

   <!-- 居中文字 GO-USB-AI（上层纯白色） -->
   <text x="480" y="580"
         font-family="Arial, sans-serif"
         font-size="200"
         font-weight="bold"
         fill="white"
         text-anchor="middle">
     GO-USB-AI
   </text>
 </svg>